<mxfile host="app.diagrams.net" modified="2023-06-14T06:17:55.867Z" agent="Mozilla/5.0 (Windows NT 10.0; Win64; x64) AppleWebKit/537.36 (KHTML, like Gecko) Chrome/114.0.0.0 Safari/537.36" etag="ET9AAxRuFgrkVh8wwDsM" version="21.3.7" type="github">
  <diagram id="C5RBs43oDa-KdzZeNtuy" name="Page-1">
    <mxGraphModel dx="1827" dy="553" grid="1" gridSize="10" guides="1" tooltips="1" connect="1" arrows="1" fold="1" page="1" pageScale="1" pageWidth="827" pageHeight="1169" math="0" shadow="0">
      <root>
        <mxCell id="WIyWlLk6GJQsqaUBKTNV-0" />
        <mxCell id="WIyWlLk6GJQsqaUBKTNV-1" parent="WIyWlLk6GJQsqaUBKTNV-0" />
        <mxCell id="FnDUO-SiWB7u7NUl_ZWl-11" value="" style="edgeStyle=orthogonalEdgeStyle;rounded=0;orthogonalLoop=1;jettySize=auto;html=1;" edge="1" parent="WIyWlLk6GJQsqaUBKTNV-1" source="FnDUO-SiWB7u7NUl_ZWl-0" target="FnDUO-SiWB7u7NUl_ZWl-10">
          <mxGeometry relative="1" as="geometry" />
        </mxCell>
        <mxCell id="FnDUO-SiWB7u7NUl_ZWl-0" value="print the logo" style="rounded=1;whiteSpace=wrap;html=1;" vertex="1" parent="WIyWlLk6GJQsqaUBKTNV-1">
          <mxGeometry x="90" y="30" width="120" height="60" as="geometry" />
        </mxCell>
        <mxCell id="FnDUO-SiWB7u7NUl_ZWl-4" value="" style="edgeStyle=orthogonalEdgeStyle;rounded=0;orthogonalLoop=1;jettySize=auto;html=1;" edge="1" parent="WIyWlLk6GJQsqaUBKTNV-1" source="FnDUO-SiWB7u7NUl_ZWl-2" target="FnDUO-SiWB7u7NUl_ZWl-3">
          <mxGeometry relative="1" as="geometry" />
        </mxCell>
        <mxCell id="FnDUO-SiWB7u7NUl_ZWl-2" value="give computer&#39;s first card" style="rounded=1;whiteSpace=wrap;html=1;" vertex="1" parent="WIyWlLk6GJQsqaUBKTNV-1">
          <mxGeometry x="350" y="30" width="120" height="60" as="geometry" />
        </mxCell>
        <mxCell id="FnDUO-SiWB7u7NUl_ZWl-15" value="" style="edgeStyle=orthogonalEdgeStyle;rounded=0;orthogonalLoop=1;jettySize=auto;html=1;" edge="1" parent="WIyWlLk6GJQsqaUBKTNV-1" source="FnDUO-SiWB7u7NUl_ZWl-3" target="FnDUO-SiWB7u7NUl_ZWl-14">
          <mxGeometry relative="1" as="geometry" />
        </mxCell>
        <mxCell id="FnDUO-SiWB7u7NUl_ZWl-3" value="take out two cards for the user" style="whiteSpace=wrap;html=1;rounded=1;" vertex="1" parent="WIyWlLk6GJQsqaUBKTNV-1">
          <mxGeometry x="510" y="30" width="120" height="60" as="geometry" />
        </mxCell>
        <mxCell id="FnDUO-SiWB7u7NUl_ZWl-13" value="yes" style="edgeStyle=orthogonalEdgeStyle;rounded=0;orthogonalLoop=1;jettySize=auto;html=1;entryX=0;entryY=0.5;entryDx=0;entryDy=0;" edge="1" parent="WIyWlLk6GJQsqaUBKTNV-1" source="FnDUO-SiWB7u7NUl_ZWl-10" target="FnDUO-SiWB7u7NUl_ZWl-2">
          <mxGeometry relative="1" as="geometry">
            <Array as="points">
              <mxPoint x="270" y="200" />
              <mxPoint x="270" y="60" />
            </Array>
          </mxGeometry>
        </mxCell>
        <mxCell id="FnDUO-SiWB7u7NUl_ZWl-10" value="does the user want to play?" style="rhombus;whiteSpace=wrap;html=1;rounded=1;" vertex="1" parent="WIyWlLk6GJQsqaUBKTNV-1">
          <mxGeometry x="140" y="160" width="80" height="80" as="geometry" />
        </mxCell>
        <mxCell id="FnDUO-SiWB7u7NUl_ZWl-17" value="Yes" style="edgeStyle=orthogonalEdgeStyle;rounded=0;orthogonalLoop=1;jettySize=auto;html=1;" edge="1" parent="WIyWlLk6GJQsqaUBKTNV-1" source="FnDUO-SiWB7u7NUl_ZWl-14" target="FnDUO-SiWB7u7NUl_ZWl-16">
          <mxGeometry relative="1" as="geometry" />
        </mxCell>
        <mxCell id="FnDUO-SiWB7u7NUl_ZWl-21" value="No" style="edgeStyle=orthogonalEdgeStyle;rounded=0;orthogonalLoop=1;jettySize=auto;html=1;" edge="1" parent="WIyWlLk6GJQsqaUBKTNV-1" source="FnDUO-SiWB7u7NUl_ZWl-14" target="FnDUO-SiWB7u7NUl_ZWl-20">
          <mxGeometry relative="1" as="geometry" />
        </mxCell>
        <mxCell id="FnDUO-SiWB7u7NUl_ZWl-14" value="does the user have a blackjack?" style="rhombus;whiteSpace=wrap;html=1;rounded=1;" vertex="1" parent="WIyWlLk6GJQsqaUBKTNV-1">
          <mxGeometry x="680" y="20" width="80" height="80" as="geometry" />
        </mxCell>
        <mxCell id="FnDUO-SiWB7u7NUl_ZWl-16" value="User wins as he has a blackjack" style="whiteSpace=wrap;html=1;rounded=1;" vertex="1" parent="WIyWlLk6GJQsqaUBKTNV-1">
          <mxGeometry x="800" y="30" width="120" height="60" as="geometry" />
        </mxCell>
        <mxCell id="FnDUO-SiWB7u7NUl_ZWl-23" value="yes" style="edgeStyle=orthogonalEdgeStyle;rounded=0;orthogonalLoop=1;jettySize=auto;html=1;" edge="1" parent="WIyWlLk6GJQsqaUBKTNV-1" source="FnDUO-SiWB7u7NUl_ZWl-20" target="FnDUO-SiWB7u7NUl_ZWl-22">
          <mxGeometry relative="1" as="geometry" />
        </mxCell>
        <mxCell id="FnDUO-SiWB7u7NUl_ZWl-33" value="" style="edgeStyle=orthogonalEdgeStyle;rounded=0;orthogonalLoop=1;jettySize=auto;html=1;" edge="1" parent="WIyWlLk6GJQsqaUBKTNV-1" source="FnDUO-SiWB7u7NUl_ZWl-20" target="FnDUO-SiWB7u7NUl_ZWl-32">
          <mxGeometry relative="1" as="geometry" />
        </mxCell>
        <mxCell id="FnDUO-SiWB7u7NUl_ZWl-20" value="does the user want another card?" style="rhombus;whiteSpace=wrap;html=1;rounded=1;" vertex="1" parent="WIyWlLk6GJQsqaUBKTNV-1">
          <mxGeometry x="610" y="180" width="80" height="80" as="geometry" />
        </mxCell>
        <mxCell id="FnDUO-SiWB7u7NUl_ZWl-25" value="" style="edgeStyle=orthogonalEdgeStyle;rounded=0;orthogonalLoop=1;jettySize=auto;html=1;" edge="1" parent="WIyWlLk6GJQsqaUBKTNV-1" source="FnDUO-SiWB7u7NUl_ZWl-22" target="FnDUO-SiWB7u7NUl_ZWl-24">
          <mxGeometry relative="1" as="geometry" />
        </mxCell>
        <mxCell id="FnDUO-SiWB7u7NUl_ZWl-22" value="take another card out for the user" style="whiteSpace=wrap;html=1;rounded=1;" vertex="1" parent="WIyWlLk6GJQsqaUBKTNV-1">
          <mxGeometry x="750" y="190" width="120" height="60" as="geometry" />
        </mxCell>
        <mxCell id="FnDUO-SiWB7u7NUl_ZWl-27" value="&amp;gt;21" style="edgeStyle=orthogonalEdgeStyle;rounded=0;orthogonalLoop=1;jettySize=auto;html=1;" edge="1" parent="WIyWlLk6GJQsqaUBKTNV-1" source="FnDUO-SiWB7u7NUl_ZWl-24" target="FnDUO-SiWB7u7NUl_ZWl-26">
          <mxGeometry relative="1" as="geometry" />
        </mxCell>
        <mxCell id="FnDUO-SiWB7u7NUl_ZWl-28" value="=21" style="edgeStyle=orthogonalEdgeStyle;rounded=0;orthogonalLoop=1;jettySize=auto;html=1;entryX=1;entryY=0.5;entryDx=0;entryDy=0;" edge="1" parent="WIyWlLk6GJQsqaUBKTNV-1" source="FnDUO-SiWB7u7NUl_ZWl-24" target="FnDUO-SiWB7u7NUl_ZWl-16">
          <mxGeometry relative="1" as="geometry">
            <Array as="points">
              <mxPoint x="940" y="340" />
              <mxPoint x="940" y="60" />
            </Array>
          </mxGeometry>
        </mxCell>
        <mxCell id="FnDUO-SiWB7u7NUl_ZWl-31" value="&amp;lt;21" style="edgeStyle=orthogonalEdgeStyle;rounded=0;orthogonalLoop=1;jettySize=auto;html=1;entryX=0.5;entryY=1;entryDx=0;entryDy=0;" edge="1" parent="WIyWlLk6GJQsqaUBKTNV-1" source="FnDUO-SiWB7u7NUl_ZWl-24" target="FnDUO-SiWB7u7NUl_ZWl-20">
          <mxGeometry relative="1" as="geometry" />
        </mxCell>
        <mxCell id="FnDUO-SiWB7u7NUl_ZWl-24" value="sum of user cards?" style="rhombus;whiteSpace=wrap;html=1;rounded=1;" vertex="1" parent="WIyWlLk6GJQsqaUBKTNV-1">
          <mxGeometry x="730" y="300" width="80" height="80" as="geometry" />
        </mxCell>
        <mxCell id="FnDUO-SiWB7u7NUl_ZWl-51" style="edgeStyle=orthogonalEdgeStyle;rounded=0;orthogonalLoop=1;jettySize=auto;html=1;entryX=0;entryY=0;entryDx=0;entryDy=0;" edge="1" parent="WIyWlLk6GJQsqaUBKTNV-1" source="FnDUO-SiWB7u7NUl_ZWl-26" target="FnDUO-SiWB7u7NUl_ZWl-10">
          <mxGeometry relative="1" as="geometry">
            <mxPoint x="-60" y="180" as="targetPoint" />
            <Array as="points">
              <mxPoint x="770" y="540" />
              <mxPoint x="771" y="540" />
              <mxPoint x="771" y="580" />
              <mxPoint x="-60" y="580" />
              <mxPoint x="-60" y="180" />
            </Array>
          </mxGeometry>
        </mxCell>
        <mxCell id="FnDUO-SiWB7u7NUl_ZWl-26" value="User loses." style="whiteSpace=wrap;html=1;rounded=1;" vertex="1" parent="WIyWlLk6GJQsqaUBKTNV-1">
          <mxGeometry x="710" y="440" width="120" height="60" as="geometry" />
        </mxCell>
        <mxCell id="FnDUO-SiWB7u7NUl_ZWl-35" value="" style="edgeStyle=orthogonalEdgeStyle;rounded=0;orthogonalLoop=1;jettySize=auto;html=1;" edge="1" parent="WIyWlLk6GJQsqaUBKTNV-1" source="FnDUO-SiWB7u7NUl_ZWl-32" target="FnDUO-SiWB7u7NUl_ZWl-34">
          <mxGeometry relative="1" as="geometry" />
        </mxCell>
        <mxCell id="FnDUO-SiWB7u7NUl_ZWl-32" value="take out another card for the computer" style="whiteSpace=wrap;html=1;rounded=1;" vertex="1" parent="WIyWlLk6GJQsqaUBKTNV-1">
          <mxGeometry x="430" y="190" width="120" height="60" as="geometry" />
        </mxCell>
        <mxCell id="FnDUO-SiWB7u7NUl_ZWl-36" value="&amp;lt;17" style="edgeStyle=orthogonalEdgeStyle;rounded=0;orthogonalLoop=1;jettySize=auto;html=1;entryX=0.5;entryY=1;entryDx=0;entryDy=0;" edge="1" parent="WIyWlLk6GJQsqaUBKTNV-1" source="FnDUO-SiWB7u7NUl_ZWl-34" target="FnDUO-SiWB7u7NUl_ZWl-32">
          <mxGeometry relative="1" as="geometry" />
        </mxCell>
        <mxCell id="FnDUO-SiWB7u7NUl_ZWl-38" value="&amp;gt;=17" style="edgeStyle=orthogonalEdgeStyle;rounded=0;orthogonalLoop=1;jettySize=auto;html=1;entryX=1;entryY=0.5;entryDx=0;entryDy=0;" edge="1" parent="WIyWlLk6GJQsqaUBKTNV-1" source="FnDUO-SiWB7u7NUl_ZWl-34" target="FnDUO-SiWB7u7NUl_ZWl-40">
          <mxGeometry relative="1" as="geometry">
            <mxPoint x="240" y="300" as="targetPoint" />
          </mxGeometry>
        </mxCell>
        <mxCell id="FnDUO-SiWB7u7NUl_ZWl-34" value="sum of comp. cards?" style="rhombus;whiteSpace=wrap;html=1;rounded=1;" vertex="1" parent="WIyWlLk6GJQsqaUBKTNV-1">
          <mxGeometry x="310" y="260" width="80" height="80" as="geometry" />
        </mxCell>
        <mxCell id="FnDUO-SiWB7u7NUl_ZWl-46" value="yes" style="edgeStyle=orthogonalEdgeStyle;rounded=0;orthogonalLoop=1;jettySize=auto;html=1;" edge="1" parent="WIyWlLk6GJQsqaUBKTNV-1" source="FnDUO-SiWB7u7NUl_ZWl-40" target="FnDUO-SiWB7u7NUl_ZWl-45">
          <mxGeometry relative="1" as="geometry" />
        </mxCell>
        <mxCell id="FnDUO-SiWB7u7NUl_ZWl-47" style="edgeStyle=orthogonalEdgeStyle;rounded=0;orthogonalLoop=1;jettySize=auto;html=1;entryX=0.5;entryY=0;entryDx=0;entryDy=0;" edge="1" parent="WIyWlLk6GJQsqaUBKTNV-1" source="FnDUO-SiWB7u7NUl_ZWl-40" target="FnDUO-SiWB7u7NUl_ZWl-45">
          <mxGeometry relative="1" as="geometry" />
        </mxCell>
        <mxCell id="FnDUO-SiWB7u7NUl_ZWl-48" value="no" style="edgeStyle=orthogonalEdgeStyle;rounded=0;orthogonalLoop=1;jettySize=auto;html=1;exitX=1;exitY=1;exitDx=0;exitDy=0;entryX=0;entryY=0.5;entryDx=0;entryDy=0;" edge="1" parent="WIyWlLk6GJQsqaUBKTNV-1" source="FnDUO-SiWB7u7NUl_ZWl-40" target="FnDUO-SiWB7u7NUl_ZWl-26">
          <mxGeometry relative="1" as="geometry">
            <mxPoint x="280" y="491" as="targetPoint" />
            <Array as="points">
              <mxPoint x="280" y="320" />
              <mxPoint x="280" y="470" />
            </Array>
          </mxGeometry>
        </mxCell>
        <mxCell id="FnDUO-SiWB7u7NUl_ZWl-50" value="equal" style="edgeStyle=orthogonalEdgeStyle;rounded=0;orthogonalLoop=1;jettySize=auto;html=1;" edge="1" parent="WIyWlLk6GJQsqaUBKTNV-1" source="FnDUO-SiWB7u7NUl_ZWl-40" target="FnDUO-SiWB7u7NUl_ZWl-49">
          <mxGeometry relative="1" as="geometry" />
        </mxCell>
        <mxCell id="FnDUO-SiWB7u7NUl_ZWl-40" value="sum of user&amp;gt;comp" style="rhombus;whiteSpace=wrap;html=1;" vertex="1" parent="WIyWlLk6GJQsqaUBKTNV-1">
          <mxGeometry x="130" y="260" width="80" height="80" as="geometry" />
        </mxCell>
        <mxCell id="FnDUO-SiWB7u7NUl_ZWl-54" style="edgeStyle=orthogonalEdgeStyle;rounded=0;orthogonalLoop=1;jettySize=auto;html=1;" edge="1" parent="WIyWlLk6GJQsqaUBKTNV-1" source="FnDUO-SiWB7u7NUl_ZWl-45">
          <mxGeometry relative="1" as="geometry">
            <mxPoint x="-60" y="440" as="targetPoint" />
          </mxGeometry>
        </mxCell>
        <mxCell id="FnDUO-SiWB7u7NUl_ZWl-45" value="User wins." style="rounded=1;whiteSpace=wrap;html=1;" vertex="1" parent="WIyWlLk6GJQsqaUBKTNV-1">
          <mxGeometry x="110" y="410" width="120" height="60" as="geometry" />
        </mxCell>
        <mxCell id="FnDUO-SiWB7u7NUl_ZWl-53" style="edgeStyle=orthogonalEdgeStyle;rounded=0;orthogonalLoop=1;jettySize=auto;html=1;" edge="1" parent="WIyWlLk6GJQsqaUBKTNV-1" source="FnDUO-SiWB7u7NUl_ZWl-49">
          <mxGeometry relative="1" as="geometry">
            <mxPoint x="-60" y="300" as="targetPoint" />
          </mxGeometry>
        </mxCell>
        <mxCell id="FnDUO-SiWB7u7NUl_ZWl-49" value="draw" style="rounded=1;whiteSpace=wrap;html=1;" vertex="1" parent="WIyWlLk6GJQsqaUBKTNV-1">
          <mxGeometry y="270" width="80" height="60" as="geometry" />
        </mxCell>
      </root>
    </mxGraphModel>
  </diagram>
</mxfile>
